<?xml version="1.0" encoding="utf-8"?>
<!-- Generator: Adobe Illustrator 16.0.0, SVG Export Plug-In . SVG Version: 6.00 Build 0)  -->
<!DOCTYPE svg PUBLIC "-//W3C//DTD SVG 1.1//EN" "http://www.w3.org/Graphics/SVG/1.1/DTD/svg11.dtd">
<svg version="1.1" id="Layer_1" xmlns="http://www.w3.org/2000/svg" xmlns:xlink="http://www.w3.org/1999/xlink" x="0px" y="0px"
	 width="56px" height="56px" viewBox="0 0 56 56" enable-background="new 0 0 56 56" xml:space="preserve">
<g>
	<path id="Github_2_" fill="#FFFFFF" d="M37.089,12.861c0.513,1.166,0.847,3.103,0.349,4.521c2.032,1.732,2.729,5.947,1.75,9.389
		c2.892,0.221,6.337-0.106,8.563,0.782c-2.08-0.268-4.918-0.792-7.601-0.609c-0.509,0.034-1.261-0.02-1.223,0.695
		c3.104,0.243,6.188,0.509,8.736,1.305c-2.525-0.413-5.597-1.042-8.736-1.13c-1.298,2.562-3.912,3.821-7.517,4.085
		c0.389,0.842,1.131,1.164,1.312,2.52c0.27,2.027-0.423,4.997,0.259,6.346c0.328,0.647,0.865,0.666,1.226,1.218
		c-0.884,1.046-3.073-0.118-3.32-1.218c-0.428-1.886,0.648-4.808-0.526-6.086c0.084,2.055-0.485,4.944,0.089,6.78
		c0.226,0.726,0.878,1.002,0.698,1.653c-4.104,0.417-2.39-5.312-3.06-8.693c-0.62,0.043-0.349,0.927-0.349,1.304
		c-0.02,3.302,0.675,7.83-2.886,7.39c-0.104-0.692,0.479-0.928,0.699-1.563c0.65-1.857-0.121-4.628,0.177-6.87
		c-1.359,1.022,0.143,4.599-0.7,6.432c-0.485,1.057-2.047,1.516-3.233,1.044c0.155-0.784,0.966-0.658,1.31-1.39
		c0.482-1.019,0.003-2.49,0.175-3.999c-2.516,0.502-4.466-0.072-5.418-1.652c-0.428-0.709-0.534-1.544-1.05-2.173
		c-0.514-0.629-1.335-0.715-1.574-1.565c3.115-0.75,3.233,3.205,6.031,3.304c0.857,0.029,1.302-0.249,2.097-0.437
		c0.221-0.996,0.698-1.739,1.398-2.262c-3.48-0.476-6.354-1.558-7.69-4.168c-3.163,0.155-6.059,0.578-8.739,1.215
		c2.433-0.883,5.435-1.2,8.652-1.303c-0.189-1.14-1.852-0.826-2.884-0.782c-1.917,0.085-4.332,0.322-5.855,0.609
		c2.21-0.788,5.309-0.689,8.302-0.695c-0.916-2.871-0.597-7.43,1.399-9.129c-0.567-1.425-0.391-3.758,0.349-4.867
		c2.229,0.099,3.582,1.071,4.981,1.998c1.737-0.494,3.562-0.739,5.943-0.608c1.002,0.055,2.042,0.504,2.796,0.435
		c0.739-0.07,1.556-0.899,2.273-1.217C35.227,13.057,36.018,12.899,37.089,12.861z"/>
</g>
</svg>
