<?xml version="1.0" encoding="utf-8"?>
<!-- Generator: Adobe Illustrator 16.0.0, SVG Export Plug-In . SVG Version: 6.00 Build 0)  -->
<!DOCTYPE svg PUBLIC "-//W3C//DTD SVG 1.1//EN" "http://www.w3.org/Graphics/SVG/1.1/DTD/svg11.dtd">
<svg version="1.1" id="Layer_1" xmlns="http://www.w3.org/2000/svg" xmlns:xlink="http://www.w3.org/1999/xlink" x="0px" y="0px"
	 width="56px" height="56px" viewBox="0 0 56 56" enable-background="new 0 0 56 56" xml:space="preserve">
<path fill="#FFFFFF" d="M12.543,26.296c0-2.828,0.689-5.448,2.069-7.859c1.379-2.41,3.252-4.317,5.616-5.721
	c2.365-1.402,4.95-2.103,7.755-2.103c4.266,0,7.91,1.529,10.937,4.589c3.024,3.061,4.537,6.759,4.537,11.094
	c0,2.759-0.66,5.314-1.982,7.668c-1.32,2.353-3.105,4.236-5.354,5.65c0.022,0.046,0.063,0.121,0.122,0.227
	c0.058,0.104,0.19,0.29,0.4,0.556c0.208,0.267,0.451,0.522,0.729,0.765c0.279,0.244,0.661,0.492,1.148,0.748
	c0.486,0.254,1.007,0.451,1.565,0.59v2.645c-0.835,0.162-1.611,0.243-2.329,0.243c-1.16,0-2.146-0.21-2.956-0.625
	c-1.3-0.673-2.354-1.764-3.166-3.271c-1.112,0.303-2.33,0.452-3.65,0.452c-2.783,0-5.362-0.7-7.738-2.103
	c-2.376-1.402-4.254-3.304-5.633-5.704C13.232,31.737,12.543,29.123,12.543,26.296z M20.228,28.348c0,2.689,0.771,4.988,2.313,6.902
	c1.541,1.912,3.402,2.868,5.581,2.868c0.602,0,1.206-0.092,1.808-0.277c-0.046-0.068-0.108-0.168-0.191-0.295
	c-0.081-0.128-0.249-0.343-0.504-0.644c-0.254-0.302-0.526-0.574-0.816-0.818s-0.649-0.469-1.078-0.677
	c-0.43-0.209-0.853-0.325-1.269-0.349v-3.06c0.231-0.023,0.463-0.036,0.695-0.036c2.76,0,5.112,1.044,7.06,3.131
	c1.459-1.878,2.19-4.127,2.19-6.746v-4.034c0-2.689-0.771-4.99-2.312-6.903c-1.541-1.912-3.401-2.868-5.581-2.868
	c-2.179,0-4.04,0.956-5.581,2.868c-1.542,1.913-2.313,4.214-2.313,6.903V28.348z"/>
</svg>
