<?xml version="1.0" encoding="utf-8"?>
<!-- Generator: Adobe Illustrator 16.0.0, SVG Export Plug-In . SVG Version: 6.00 Build 0)  -->
<!DOCTYPE svg PUBLIC "-//W3C//DTD SVG 1.1//EN" "http://www.w3.org/Graphics/SVG/1.1/DTD/svg11.dtd">
<svg version="1.1" id="Layer_1" xmlns="http://www.w3.org/2000/svg" xmlns:xlink="http://www.w3.org/1999/xlink" x="0px" y="0px"
	 width="56px" height="56px" viewBox="0 0 56 56" enable-background="new 0 0 56 56" xml:space="preserve">
<path fill="#FFFFFF" stroke="#000000" stroke-miterlimit="10" d="M28.217,44.046c-0.097,0-0.188-0.004-0.259-0.008
	c-0.057,0.006-0.113,0.008-0.172,0.008c-2.034,0-3.396-0.963-4.596-1.812c-0.861-0.607-1.674-1.182-2.623-1.34
	c-0.469-0.078-0.934-0.117-1.383-0.117c-0.809,0-1.447,0.125-1.915,0.217c-0.286,0.059-0.534,0.104-0.726,0.104
	c-0.201,0-0.444-0.045-0.545-0.391c-0.081-0.273-0.139-0.539-0.194-0.793c-0.14-0.639-0.239-1.027-0.479-1.064
	c-2.553-0.393-4.062-0.973-4.36-1.676c-0.031-0.074-0.05-0.148-0.054-0.221c-0.012-0.211,0.137-0.396,0.344-0.43
	c2.025-0.334,3.829-1.404,5.355-3.188c1.186-1.377,1.767-2.693,1.828-2.84c0.002-0.006,0.006-0.014,0.008-0.021
	c0.295-0.598,0.354-1.113,0.176-1.533c-0.328-0.775-1.418-1.121-2.139-1.35c-0.18-0.057-0.35-0.11-0.483-0.164
	c-0.64-0.252-1.689-0.786-1.55-1.521c0.103-0.537,0.812-0.91,1.386-0.91c0.157,0,0.3,0.028,0.419,0.084
	c0.646,0.305,1.23,0.457,1.732,0.457c0.623,0,0.924-0.236,0.998-0.305c-0.019-0.333-0.041-0.686-0.062-1.018V24.21
	c-0.146-2.328-0.329-5.228,0.413-6.89c2.219-4.975,6.924-5.36,8.312-5.36c0.036,0,0.604-0.006,0.604-0.006c0.024,0,0.053,0,0.082,0
	c1.394,0,6.107,0.387,8.328,5.363c0.74,1.663,0.56,4.564,0.412,6.896l-0.008,0.111c-0.021,0.315-0.039,0.615-0.055,0.905
	c0.068,0.062,0.346,0.281,0.905,0.304c0.478-0.02,1.026-0.173,1.633-0.455c0.187-0.088,0.394-0.105,0.534-0.105
	c0.213,0,0.429,0.042,0.609,0.117l0.01,0.003c0.513,0.182,0.85,0.546,0.854,0.929c0.009,0.355-0.259,0.891-1.562,1.404
	c-0.135,0.053-0.305,0.107-0.483,0.164c-0.722,0.229-1.81,0.574-2.139,1.35c-0.181,0.42-0.12,0.938,0.175,1.533
	c0.003,0.006,0.006,0.014,0.009,0.021c0.093,0.213,2.286,5.219,7.187,6.025c0.207,0.033,0.354,0.217,0.343,0.428
	c-0.004,0.074-0.022,0.148-0.054,0.223c-0.299,0.699-1.808,1.279-4.359,1.674c-0.24,0.037-0.341,0.424-0.479,1.059
	c-0.059,0.264-0.115,0.52-0.194,0.789c-0.074,0.252-0.239,0.377-0.505,0.377h-0.041c-0.172,0-0.418-0.029-0.728-0.092
	c-0.538-0.104-1.145-0.203-1.913-0.203c-0.449,0-0.914,0.039-1.383,0.117c-0.947,0.158-1.761,0.73-2.619,1.338
	C31.613,43.083,30.253,44.046,28.217,44.046"/>
<path fill="#020202" d="M28.338,12.369c1.312,0,5.825,0.353,7.954,5.121c0.701,1.571,0.521,4.416,0.377,6.702
	c-0.021,0.363-0.045,0.714-0.062,1.05l-0.008,0.146l0.096,0.106c0.039,0.043,0.403,0.424,1.215,0.455l0.014,0.002h0.014
	c0.535-0.021,1.141-0.188,1.795-0.494c0.098-0.045,0.225-0.065,0.359-0.065c0.154,0,0.318,0.028,0.455,0.086l0.021,0.008
	c0.344,0.121,0.588,0.349,0.59,0.554c0.004,0.115-0.084,0.533-1.303,1.016c-0.117,0.047-0.273,0.097-0.457,0.154
	c-0.793,0.252-1.988,0.631-2.393,1.58c-0.229,0.533-0.165,1.166,0.186,1.877c0.145,0.334,2.404,5.43,7.494,6.268
	c-0.001,0.025-0.008,0.051-0.021,0.082c-0.086,0.203-0.635,0.904-4.047,1.432c-0.532,0.082-0.664,0.682-0.814,1.375
	c-0.057,0.25-0.109,0.502-0.188,0.762c-0.022,0.078-0.026,0.084-0.11,0.084c-0.013,0-0.025,0-0.04,0
	c-0.151,0-0.383-0.031-0.646-0.084c-0.483-0.096-1.146-0.211-1.994-0.211c-0.474,0-0.959,0.041-1.446,0.123
	c-1.046,0.174-1.896,0.773-2.793,1.408c-1.207,0.855-2.456,1.736-4.36,1.736c-0.083,0-0.164-0.002-0.246-0.006l-0.021-0.002
	l-0.022,0.002c-0.046,0.004-0.093,0.006-0.142,0.006c-1.904,0-3.153-0.883-4.36-1.736c-0.898-0.635-1.749-1.234-2.793-1.408
	c-0.486-0.082-0.977-0.123-1.447-0.123c-0.847,0-1.51,0.131-1.992,0.225c-0.269,0.053-0.498,0.098-0.647,0.098
	c-0.124,0-0.126-0.008-0.151-0.096c-0.078-0.262-0.133-0.52-0.188-0.768c-0.152-0.697-0.283-1.299-0.816-1.381
	c-3.412-0.525-3.959-1.229-4.047-1.434c-0.013-0.031-0.02-0.059-0.021-0.082c5.091-0.838,7.353-5.934,7.496-6.27
	c0.351-0.709,0.412-1.342,0.186-1.877c-0.402-0.949-1.602-1.328-2.393-1.58c-0.183-0.059-0.338-0.106-0.459-0.154
	c-1.026-0.406-1.344-0.815-1.297-1.063c0.056-0.286,0.549-0.577,0.982-0.577c0.098,0,0.184,0.018,0.246,0.045
	c0.703,0.33,1.344,0.496,1.906,0.496c0.886,0,1.279-0.412,1.32-0.457l0.096-0.106l-0.008-0.146
	c-0.019-0.334-0.039-0.687-0.062-1.049c-0.145-2.285-0.322-5.129,0.377-6.699c2.12-4.754,6.613-5.119,7.939-5.119
	c0.033,0,0.607-0.006,0.607-0.006C28.284,12.369,28.311,12.369,28.338,12.369 M28.338,11.549L28.338,11.549c-0.031,0-0.06,0-0.086,0
	c-0.216,0.002-0.57,0.005-0.603,0.006c-0.777,0-2.332,0.109-4,0.847c-0.955,0.421-1.814,0.991-2.555,1.693
	c-0.881,0.836-1.6,1.868-2.133,3.065c-0.782,1.754-0.598,4.706-0.447,7.08v0.004c0.018,0.254,0.033,0.521,0.048,0.777
	c-0.114,0.055-0.301,0.107-0.573,0.107c-0.441,0-0.967-0.142-1.561-0.42c-0.175-0.08-0.374-0.121-0.594-0.121
	c-0.354,0-0.727,0.104-1.049,0.293c-0.405,0.238-0.668,0.576-0.739,0.949c-0.048,0.248-0.045,0.736,0.498,1.231
	c0.299,0.272,0.735,0.524,1.303,0.749c0.147,0.059,0.325,0.113,0.513,0.173c0.647,0.206,1.629,0.517,1.885,1.12
	c0.129,0.305,0.074,0.705-0.166,1.191c-0.006,0.014-0.012,0.023-0.019,0.039c-0.06,0.141-0.616,1.402-1.761,2.734
	c-0.648,0.76-1.366,1.393-2.127,1.881c-0.93,0.604-1.934,0.994-2.986,1.166c-0.412,0.068-0.709,0.439-0.686,0.855
	c0.007,0.119,0.035,0.24,0.084,0.357c0,0,0.001,0,0.001,0.002c0.167,0.391,0.555,0.723,1.185,1.016
	c0.771,0.357,1.924,0.658,3.424,0.895c0.075,0.146,0.153,0.508,0.209,0.756c0.058,0.266,0.115,0.533,0.2,0.822
	c0.093,0.312,0.329,0.688,0.938,0.688c0.23,0,0.496-0.053,0.805-0.113c0.451-0.088,1.066-0.209,1.836-0.209
	c0.428,0,0.869,0.039,1.312,0.111c0.857,0.145,1.598,0.666,2.453,1.27c1.252,0.885,2.668,1.887,4.834,1.887
	c0.06,0,0.117-0.002,0.178-0.006c0.07,0.004,0.16,0.006,0.254,0.006c2.167,0,3.583-1.002,4.833-1.887l0.002-0.002
	c0.854-0.604,1.595-1.125,2.452-1.27c0.443-0.072,0.887-0.109,1.312-0.109c0.735,0,1.317,0.094,1.839,0.193
	c0.338,0.066,0.603,0.1,0.805,0.1l0.02,0.002h0.021c0.445,0,0.771-0.246,0.896-0.674c0.084-0.281,0.145-0.549,0.201-0.814
	c0.051-0.232,0.133-0.604,0.208-0.752c1.502-0.234,2.651-0.533,3.424-0.895c0.63-0.291,1.017-0.623,1.185-1.014
	c0.052-0.115,0.08-0.236,0.088-0.359c0.023-0.418-0.272-0.787-0.688-0.855c-4.68-0.77-6.785-5.576-6.874-5.779
	c-0.006-0.016-0.013-0.027-0.02-0.041c-0.238-0.486-0.294-0.889-0.164-1.191c0.255-0.602,1.233-0.913,1.884-1.119
	c0.188-0.059,0.364-0.115,0.514-0.173c0.639-0.252,1.094-0.526,1.396-0.836c0.358-0.371,0.43-0.726,0.425-0.958
	c-0.011-0.562-0.439-1.061-1.123-1.307c-0.23-0.096-0.494-0.146-0.763-0.146c-0.183,0-0.452,0.023-0.708,0.146
	c-0.547,0.256-1.037,0.396-1.459,0.416c-0.225-0.013-0.381-0.062-0.482-0.106c0.014-0.22,0.027-0.444,0.042-0.679l0.007-0.103
	c0.149-2.375,0.336-5.332-0.447-7.087c-0.534-1.202-1.256-2.234-2.141-3.072c-0.742-0.703-1.604-1.272-2.562-1.693
	C30.671,11.658,29.116,11.549,28.338,11.549"/>
</svg>
