<?xml version="1.0" encoding="utf-8"?>
<!-- Generator: Adobe Illustrator 16.0.0, SVG Export Plug-In . SVG Version: 6.00 Build 0)  -->
<!DOCTYPE svg PUBLIC "-//W3C//DTD SVG 1.1//EN" "http://www.w3.org/Graphics/SVG/1.1/DTD/svg11.dtd">
<svg version="1.1" id="Layer_1" xmlns="http://www.w3.org/2000/svg" xmlns:xlink="http://www.w3.org/1999/xlink" x="0px" y="0px"
	 width="56px" height="56px" viewBox="229.116 229.315 56 56" enable-background="new 229.116 229.315 56 56" xml:space="preserve">
<path fill="#FFFFFF" d="M257.331,273.359c-0.097,0-0.189-0.003-0.259-0.007c-0.056,0.005-0.113,0.007-0.171,0.007
	c-2.035,0-3.396-0.962-4.597-1.812c-0.86-0.607-1.672-1.182-2.623-1.34c-0.467-0.077-0.932-0.117-1.381-0.117
	c-0.809,0-1.448,0.126-1.915,0.217c-0.287,0.057-0.535,0.104-0.726,0.104c-0.201,0-0.444-0.045-0.545-0.392
	c-0.081-0.272-0.138-0.538-0.194-0.793c-0.139-0.637-0.24-1.026-0.479-1.063c-2.553-0.394-4.061-0.974-4.361-1.677
	c-0.031-0.073-0.049-0.147-0.053-0.221c-0.012-0.21,0.136-0.394,0.343-0.428c2.027-0.334,3.829-1.405,5.357-3.186
	c1.184-1.378,1.765-2.695,1.827-2.84c0.003-0.007,0.006-0.014,0.009-0.021c0.295-0.598,0.353-1.113,0.175-1.534
	c-0.329-0.775-1.418-1.121-2.139-1.35c-0.179-0.057-0.349-0.11-0.484-0.164c-0.639-0.252-1.689-0.786-1.549-1.521
	c0.102-0.537,0.812-0.91,1.385-0.91c0.159,0,0.3,0.028,0.419,0.083c0.648,0.304,1.231,0.458,1.733,0.458
	c0.624,0,0.925-0.238,0.998-0.305c-0.018-0.333-0.04-0.685-0.061-1.017c0,0,0-0.004,0-0.004c-0.146-2.329-0.329-5.227,0.413-6.889
	c2.219-4.975,6.924-5.362,8.313-5.362c0.037,0,0.605-0.005,0.605-0.005c0.025,0,0.053-0.001,0.082-0.001
	c1.393,0,6.108,0.387,8.328,5.365c0.741,1.663,0.559,4.564,0.412,6.895l-0.007,0.112c-0.021,0.316-0.039,0.616-0.055,0.906
	c0.068,0.063,0.345,0.281,0.905,0.303c0.478-0.019,1.027-0.172,1.633-0.455c0.187-0.088,0.394-0.106,0.534-0.106
	c0.213,0,0.429,0.042,0.609,0.117l0.01,0.003c0.513,0.182,0.85,0.546,0.856,0.929c0.007,0.356-0.259,0.89-1.562,1.404
	c-0.133,0.053-0.304,0.107-0.483,0.164c-0.722,0.229-1.81,0.574-2.139,1.35c-0.179,0.42-0.12,0.937,0.175,1.534
	c0.003,0.006,0.006,0.013,0.009,0.02c0.091,0.213,2.286,5.219,7.185,6.026c0.207,0.034,0.354,0.218,0.343,0.427
	c-0.004,0.075-0.022,0.15-0.054,0.224c-0.299,0.699-1.807,1.278-4.359,1.673c-0.24,0.036-0.341,0.424-0.479,1.058
	c-0.057,0.263-0.115,0.519-0.194,0.789c-0.074,0.253-0.239,0.377-0.505,0.377h-0.04c-0.173,0-0.418-0.031-0.727-0.092
	c-0.539-0.104-1.145-0.202-1.914-0.202c-0.449,0-0.914,0.039-1.382,0.116c-0.949,0.158-1.761,0.731-2.62,1.339
	C260.727,272.397,259.366,273.359,257.331,273.359"/>
<path fill="#020202" d="M257.452,241.681c1.311,0,5.826,0.352,7.954,5.122c0.701,1.571,0.521,4.416,0.377,6.702
	c-0.022,0.363-0.045,0.714-0.062,1.05l-0.008,0.144l0.096,0.108c0.039,0.043,0.403,0.423,1.214,0.455l0.013,0.001l0.014,0
	c0.535-0.02,1.139-0.187,1.794-0.493c0.097-0.045,0.225-0.067,0.36-0.067c0.155,0,0.319,0.029,0.455,0.086l0.021,0.008
	c0.344,0.121,0.587,0.348,0.59,0.553c0.003,0.116-0.084,0.534-1.302,1.015c-0.119,0.047-0.275,0.097-0.457,0.154
	c-0.793,0.252-1.99,0.631-2.393,1.581c-0.227,0.535-0.165,1.166,0.185,1.876c0.144,0.335,2.405,5.43,7.495,6.269
	c-0.001,0.024-0.008,0.051-0.021,0.082c-0.086,0.203-0.635,0.904-4.046,1.432c-0.534,0.081-0.665,0.68-0.816,1.375
	c-0.055,0.25-0.11,0.501-0.188,0.761c-0.023,0.078-0.027,0.083-0.111,0.083c-0.012,0-0.025,0-0.04,0
	c-0.151,0-0.382-0.031-0.647-0.084c-0.484-0.094-1.147-0.21-1.994-0.21c-0.473,0-0.959,0.041-1.447,0.122
	c-1.044,0.174-1.894,0.774-2.793,1.41c-1.207,0.854-2.456,1.736-4.36,1.736c-0.083,0-0.164-0.003-0.246-0.007l-0.021-0.001
	l-0.022,0.002c-0.046,0.004-0.093,0.006-0.142,0.006c-1.904,0-3.153-0.883-4.36-1.736c-0.899-0.636-1.749-1.236-2.793-1.41
	c-0.488-0.081-0.975-0.122-1.448-0.122c-0.846,0-1.509,0.13-1.993,0.224c-0.267,0.053-0.497,0.097-0.647,0.097
	c-0.124,0-0.126-0.007-0.152-0.096c-0.077-0.261-0.132-0.518-0.187-0.767c-0.152-0.696-0.283-1.298-0.816-1.38
	c-3.412-0.526-3.96-1.229-4.047-1.433c-0.013-0.032-0.02-0.06-0.021-0.083c5.089-0.838,7.351-5.933,7.495-6.27
	c0.35-0.709,0.412-1.34,0.185-1.876c-0.403-0.949-1.6-1.329-2.392-1.58c-0.182-0.058-0.338-0.107-0.458-0.155
	c-1.028-0.406-1.345-0.815-1.298-1.063c0.055-0.286,0.55-0.577,0.983-0.577c0.098,0,0.183,0.016,0.246,0.045
	c0.703,0.329,1.344,0.496,1.907,0.496c0.885,0,1.278-0.412,1.32-0.458l0.096-0.107l-0.008-0.144
	c-0.018-0.335-0.04-0.687-0.063-1.049c-0.144-2.286-0.323-5.129,0.377-6.7c2.12-4.753,6.613-5.119,7.939-5.119
	c0.033,0,0.609-0.006,0.609-0.006C257.398,241.682,257.425,241.681,257.452,241.681 M257.452,240.861h-0.001
	c-0.03,0-0.059,0-0.085,0c-0.216,0.002-0.57,0.005-0.602,0.006c-0.777,0-2.332,0.11-4.001,0.847
	c-0.955,0.421-1.814,0.991-2.553,1.693c-0.881,0.836-1.599,1.868-2.133,3.065c-0.782,1.754-0.596,4.708-0.447,7.082l0,0.003
	c0.016,0.254,0.033,0.52,0.048,0.778c-0.115,0.053-0.301,0.108-0.575,0.108c-0.441,0-0.966-0.141-1.559-0.419
	c-0.175-0.081-0.374-0.122-0.594-0.122c-0.353,0-0.725,0.104-1.048,0.293c-0.406,0.239-0.668,0.576-0.74,0.95
	c-0.047,0.247-0.045,0.736,0.498,1.231c0.299,0.273,0.737,0.524,1.303,0.749c0.149,0.058,0.325,0.114,0.512,0.173
	c0.648,0.206,1.629,0.517,1.885,1.12c0.129,0.305,0.074,0.706-0.166,1.192c-0.006,0.013-0.012,0.025-0.018,0.039
	c-0.06,0.14-0.617,1.403-1.761,2.735c-0.65,0.758-1.366,1.391-2.127,1.882c-0.928,0.601-1.933,0.993-2.986,1.166
	c-0.414,0.068-0.709,0.437-0.686,0.855c0.007,0.12,0.036,0.24,0.084,0.357c0,0,0.001,0.001,0.001,0.002
	c0.167,0.391,0.555,0.723,1.185,1.016c0.77,0.357,1.922,0.658,3.423,0.895c0.076,0.144,0.154,0.506,0.209,0.754
	c0.057,0.265,0.116,0.535,0.201,0.823c0.092,0.312,0.329,0.686,0.939,0.686c0.231,0,0.497-0.052,0.804-0.112
	c0.451-0.088,1.067-0.209,1.836-0.209c0.427,0,0.869,0.038,1.313,0.111c0.858,0.144,1.597,0.665,2.453,1.271
	c1.252,0.885,2.669,1.887,4.834,1.887c0.059,0,0.118-0.002,0.177-0.006c0.072,0.003,0.161,0.006,0.254,0.006
	c2.167,0,3.583-1.002,4.833-1.887l0.002-0.002c0.855-0.604,1.595-1.125,2.452-1.269c0.444-0.073,0.887-0.111,1.312-0.111
	c0.735,0,1.317,0.094,1.837,0.195c0.339,0.066,0.603,0.099,0.805,0.099l0.02,0.001h0.021c0.446,0,0.773-0.245,0.898-0.674
	c0.084-0.281,0.143-0.547,0.201-0.814c0.051-0.233,0.133-0.605,0.208-0.752c1.502-0.235,2.653-0.535,3.424-0.894
	c0.628-0.291,1.016-0.623,1.184-1.013c0.051-0.116,0.08-0.237,0.087-0.36c0.023-0.418-0.272-0.787-0.686-0.855
	c-4.68-0.771-6.787-5.578-6.874-5.782c-0.006-0.014-0.013-0.027-0.02-0.04c-0.238-0.486-0.294-0.887-0.164-1.192
	c0.255-0.602,1.235-0.913,1.884-1.119c0.188-0.059,0.364-0.115,0.512-0.173c0.639-0.252,1.095-0.526,1.396-0.836
	c0.359-0.371,0.43-0.725,0.425-0.958c-0.011-0.562-0.44-1.061-1.123-1.306c-0.231-0.095-0.494-0.146-0.763-0.146
	c-0.182,0-0.452,0.025-0.708,0.145c-0.547,0.256-1.037,0.396-1.459,0.416c-0.224-0.011-0.381-0.06-0.482-0.106
	c0.014-0.219,0.027-0.444,0.042-0.679l0.006-0.101c0.15-2.375,0.336-5.332-0.446-7.087c-0.536-1.202-1.257-2.236-2.141-3.074
	c-0.742-0.703-1.604-1.272-2.562-1.693C259.785,240.971,258.23,240.861,257.452,240.861"/>
</svg>
