<?xml version="1.0" encoding="utf-8"?>
<!-- Generator: Adobe Illustrator 16.0.0, SVG Export Plug-In . SVG Version: 6.00 Build 0)  -->
<!DOCTYPE svg PUBLIC "-//W3C//DTD SVG 1.1//EN" "http://www.w3.org/Graphics/SVG/1.1/DTD/svg11.dtd">
<svg version="1.1" id="Layer_1" xmlns="http://www.w3.org/2000/svg" xmlns:xlink="http://www.w3.org/1999/xlink" x="0px" y="0px"
	 width="1024px" height="1024px" viewBox="0 0 1024 1024" enable-background="new 0 0 1024 1024" xml:space="preserve">
<path fill="#FFFFFF" d="M639.128,397.009c8.248,0,16.399,0.601,24.489,1.499c-21.996-101.955-131.524-177.704-256.542-177.704
	c-139.761,0-254.26,94.81-254.26,215.212c0,69.492,38.081,126.569,101.748,170.834l-25.444,76.127l88.901-44.362
	c31.8,6.264,57.324,12.721,89.056,12.721c7.974,0,15.885-0.41,23.728-1.018c-4.972-16.926-7.843-34.647-7.843-53.033
	C422.965,486.733,518.348,397.009,639.128,397.009z M502.416,328.41c19.147,0,31.833,12.528,31.833,31.583
	c0,18.962-12.692,31.667-31.833,31.667c-19.049,0-38.183-12.705-38.183-31.667C464.238,340.938,483.366,328.41,502.416,328.41z
	 M324.477,391.654c-19.049,0-38.281-12.705-38.281-31.668c0-19.048,19.232-31.582,38.281-31.582
	c19.061,0,31.737,12.527,31.737,31.582C356.214,378.955,343.538,391.654,324.477,391.654z M871.186,594.248
	c0-101.177-101.719-183.647-215.966-183.647c-120.965,0-216.259,82.47-216.259,183.647c0,101.342,95.289,183.636,216.259,183.636
	c25.329,0,50.864-6.338,76.291-12.688l69.744,38l-19.125-63.228C833.162,701.854,871.186,651.336,871.186,594.248z M585.109,562.585
	c-12.659,0-25.438-12.527-25.438-25.317c0-12.624,12.778-25.312,25.438-25.312c19.227,0,31.829,12.688,31.829,25.312
	C616.943,550.058,604.342,562.585,585.109,562.585z M724.979,562.585c-12.597,0-25.266-12.527-25.266-25.317
	c0-12.624,12.669-25.312,25.266-25.312c19.048,0,31.822,12.688,31.822,25.312C756.801,550.058,744.026,562.585,724.979,562.585z"/>
</svg>
