<?xml version="1.0" encoding="utf-8"?>
<!-- Generator: Adobe Illustrator 16.0.0, SVG Export Plug-In . SVG Version: 6.00 Build 0)  -->
<!DOCTYPE svg PUBLIC "-//W3C//DTD SVG 1.1//EN" "http://www.w3.org/Graphics/SVG/1.1/DTD/svg11.dtd">
<svg version="1.1" id="Layer_1" xmlns="http://www.w3.org/2000/svg" xmlns:xlink="http://www.w3.org/1999/xlink" x="0px" y="0px"
	 width="1024px" height="1024px" viewBox="0 0 1024 1024" enable-background="new 0 0 1024 1024" xml:space="preserve">
<path fill="#FFFFFF" d="M645.895,390.888c8.688,0,17.272,0.632,25.793,1.579c-23.167-107.381-138.525-187.163-270.198-187.163
	c-147.2,0-267.794,99.856-267.794,226.668c0,73.191,40.107,133.306,107.164,179.928l-26.799,80.179l93.633-46.724
	c33.493,6.598,60.375,13.398,93.796,13.398c8.398,0,16.73-0.433,24.991-1.072c-5.236-17.826-8.261-36.491-8.261-55.855
	C418.226,485.388,518.686,390.888,645.895,390.888z M501.905,318.638c20.166,0,33.528,13.195,33.528,33.264
	c0,19.972-13.369,33.354-33.528,33.354c-20.063,0-40.216-13.381-40.216-33.354C461.695,331.833,481.842,318.638,501.905,318.638z
	 M314.495,385.249c-20.062,0-40.318-13.381-40.318-33.354c0-20.062,20.256-33.263,40.318-33.263
	c20.075,0,33.427,13.194,33.427,33.263C347.922,371.874,334.57,385.249,314.495,385.249z M890.305,598.626
	c0-106.562-107.134-193.422-227.462-193.422c-127.403,0-227.771,86.86-227.771,193.422c0,106.736,100.361,193.41,227.771,193.41
	c26.678,0,53.572-6.675,80.353-13.362l73.456,40.022l-20.143-66.593C850.257,711.96,890.305,658.753,890.305,598.626z
	 M589.001,565.277c-13.333,0-26.792-13.194-26.792-26.665c0-13.296,13.459-26.66,26.792-26.66c20.25,0,33.523,13.364,33.523,26.66
	C622.529,552.083,609.257,565.277,589.001,565.277z M736.314,565.277c-13.267,0-26.61-13.194-26.61-26.665
	c0-13.296,13.344-26.66,26.61-26.66c20.062,0,33.517,13.364,33.517,26.66C769.831,552.083,756.377,565.277,736.314,565.277z"/>
</svg>
